<?xml version="1.0" encoding="UTF-8"?>
<!DOCTYPE svg PUBLIC "-//W3C//DTD SVG 1.1//EN" "http://www.w3.org/Graphics/SVG/1.1/DTD/svg11.dtd">
<!-- Creator: CorelDRAW 2020 (64-Bit) -->
<svg xmlns="http://www.w3.org/2000/svg" xml:space="preserve" width="65.1966mm" height="18.4152mm" version="1.1" style="shape-rendering:geometricPrecision; text-rendering:geometricPrecision; image-rendering:optimizeQuality; fill-rule:evenodd; clip-rule:evenodd"
viewBox="0 0 4116.19 1162.64"
 xmlns:xlink="http://www.w3.org/1999/xlink"
 xmlns:xodm="http://www.corel.com/coreldraw/odm/2003">
 <defs>
  <style type="text/css">
   <![CDATA[
    .fil0 {fill:#376D79}
    .fil1 {fill:#BAA496}
    .fil2 {fill:#BAA496;fill-rule:nonzero}
   ]]>
  </style>
 </defs>
 <g id="Layer_x0020_1">
  <metadata id="CorelCorpID_0Corel-Layer"/>
  <path class="fil0" d="M357.82 44.52c68.8,-28.68 144.3,-44.52 223.5,-44.52 321.05,0 581.32,260.27 581.32,581.32 0,188.95 -90.16,356.85 -229.79,463.03l0 -773.36 -133.64 0 0 247.22 -441.4 0 0 -473.7zm-133.24 77.78l0 773.44 133.24 0 0 -307.36 441.4 0 0 532.05c-67.29,27.22 -140.84,42.22 -217.9,42.22 -321.05,0 -581.32,-260.27 -581.32,-581.32 0,-186.6 87.93,-352.65 224.58,-459.02z"/>
  <polygon class="fil1" points="1270.29,1049.42 1270.29,982.6 1400.58,982.6 1400.58,267.64 1270.29,267.64 1270.29,200.83 1646.57,200.83 1646.57,267.64 1516.28,267.64 1516.28,982.6 1646.57,982.6 1646.57,1049.42 "/>
  <polygon class="fil1" points="2698.72,200.83 2537.29,200.83 2243.02,535.11 1948.76,200.83 1787.33,200.83 2162.31,626.79 1790.27,1049.42 1951.7,1049.42 2243.02,718.48 2534.35,1049.42 2695.78,1049.42 2323.74,626.79 "/>
  <path class="fil1" d="M3795.2 1049.42l-446.13 -848.59 -117.64 0 -446.13 848.59 139.02 0 128.22 -243.88 475.42 0 128.21 243.88 139.02 0zm-711.05 -304.02l412.19 0 -206.09 -392.01 -206.1 392.01z"/>
  <path class="fil1" d="M3683.79 233.82l0 -117.46 40.08 0 0 121.11c0,23.81 20.2,43.12 45.1,43.12 24.91,0 45.11,-19.31 45.11,-43.12l0 -121.11 40.08 0 0 117.46c0,45.66 -38.15,82.68 -85.19,82.68 -47.04,0 -85.18,-37.02 -85.18,-82.68z"/>
  <path class="fil2" d="M4011.41 242.55l0 -33.06 104.78 0 0 78.06c-10.16,8.06 -24.93,15.12 -44.31,21.27 -19.31,6.1 -38.9,9.15 -58.78,9.15 -25.22,0 -47.17,-4.28 -65.92,-12.89 -18.7,-8.61 -32.8,-20.95 -42.23,-36.93 -9.44,-15.99 -14.15,-33.42 -14.15,-52.23 0,-20.41 5.28,-38.53 15.78,-54.42 10.56,-15.85 25.95,-28.06 46.22,-36.52 15.5,-6.52 34.7,-9.75 57.72,-9.75 29.93,0 53.35,5.1 70.19,15.3 16.79,10.25 27.63,24.31 32.45,42.35l-48.51 7.38c-3.37,-9.61 -9.77,-17.22 -19.15,-22.82 -9.32,-5.56 -21,-8.33 -35.03,-8.33 -21.23,0 -38.13,5.46 -50.65,16.44 -12.53,10.97 -18.81,27.23 -18.81,48.77 0,23.27 6.35,40.72 19.03,52.33 12.75,11.62 29.37,17.44 49.98,17.44 10.16,0 20.39,-1.64 30.61,-4.87 10.28,-3.23 19.04,-7.2 26.39,-11.84l0 -24.82 -55.59 0z"/>
 </g>
</svg>
